<svg width="76" height="76" viewBox="0 0 76 76" fill="none" xmlns="http://www.w3.org/2000/svg">
<path d="M75.9997 76V73.4666H56.8606C57.9368 72.4158 58.7278 71.1083 59.1595 69.6667H72.1997V72.2H74.733V64.6H72.1997V67.1333H67.2382L69.5693 38.0001H72.1997C72.8992 38.0001 73.4664 37.4336 73.4664 36.7334V31.6668C73.4664 30.9673 72.8992 30.4001 72.1997 30.4001H72.0327L73.2536 28.57C73.5375 28.1445 73.5375 27.5897 73.2536 27.1642L70.7203 23.3642C70.5978 23.1812 70.4296 23.0327 70.2329 22.9338L65.269 20.4518L61.2519 17.4397L63.1203 14.6368C63.3721 14.2595 63.4024 13.7764 63.2001 13.3701L60.6668 8.30345C60.5282 8.02575 60.2926 7.80866 60.0044 7.693L53.9117 5.2574L49.0287 0.371967C48.6434 -0.0139693 48.0546 -0.109835 47.5672 0.133849L42.7678 2.53358H31.6665C31.4705 2.53358 31.2763 2.57935 31.1006 2.66717L26.034 5.2005C25.8039 5.31553 25.614 5.49799 25.4903 5.72312L22.808 10.5999L19.157 10.1441C18.6598 10.0816 18.173 10.3185 17.9145 10.7483L14.1145 17.0816C14.0663 17.1614 14.0273 17.2462 13.9982 17.3346L13.1027 20.0213L9.17588 19.0398C8.84066 18.955 8.48503 19.0113 8.19248 19.1956C7.89994 19.3793 7.6946 19.675 7.62533 20.0139L6.39145 26.1802L4.28426 30.4001H3.79999C3.10048 30.4001 2.53332 30.9673 2.53332 31.6668V36.7334C2.53332 37.4336 3.10048 38.0001 3.79999 38.0001H6.43103L8.76149 67.1333H3.79999V64.6H1.26666V72.2H3.79999V69.6667H16.847C17.2781 71.1083 18.0697 72.4158 19.1459 73.4666H0V76H75.9997ZM31.5274 73.4666C32.6036 72.4158 33.3946 71.1083 33.8263 69.6667H42.1802C42.6113 71.1083 43.403 72.4158 44.4791 73.4666H31.5274ZM18.0679 62.0667H15.9805L15.5747 57H60.42L60.0143 62.0667H57.9325C56.2786 59.6867 53.5647 58.2673 50.6665 58.2673C47.7689 58.2673 45.0543 59.6867 43.4011 62.0667H32.5992C30.9454 59.6867 28.2315 58.2673 25.3332 58.2673C22.4356 58.2673 19.7211 59.6867 18.0679 62.0667ZM14.4602 43.0668H61.5395L61.2358 46.8667H14.7645L14.4602 43.0668ZM14.9668 49.4001H61.0329L60.6278 54.4667H15.3725L14.9668 49.4001ZM41.7998 67.1333H34.1999C34.1974 66.2755 34.0694 65.422 33.8201 64.6H42.1802C41.9303 65.422 41.8023 66.2755 41.7998 67.1333V67.1333ZM50.6665 73.4666C47.1689 73.4666 44.3332 70.6315 44.3332 67.1333C44.3332 63.6358 47.1689 60.8 50.6665 60.8C54.1646 60.8 56.9998 63.6358 56.9998 67.1333C56.9954 70.6296 54.1628 73.4629 50.6665 73.4666ZM64.0338 22.674L68.7987 25.0564L70.6801 27.8668L68.9916 30.4001H55.38L54.4021 27.4667C54.3205 27.2224 54.1665 27.0084 53.9599 26.8537L49.8519 23.773L53.7787 17.8758L59 18.9192L63.8396 22.5472C63.9002 22.5954 63.9652 22.6375 64.0338 22.674ZM22.7622 30.0928L21.5648 25.3032L22.6873 19.6873L29.5921 13.9335H42.2433L46.9753 24.5814C46.9896 24.613 47.0124 24.6383 47.0285 24.6686C47.0458 24.7008 47.065 24.7317 47.086 24.7614C47.1052 24.7966 47.1269 24.8307 47.1504 24.8641C47.1757 24.8944 47.2073 24.9185 47.2351 24.9463C47.2778 24.9946 47.3242 25.0391 47.373 25.0805L52.123 28.6436L52.7087 30.4001H22.7999C22.7999 30.2969 22.7875 30.1936 22.7622 30.0928V30.0928ZM47.8802 2.80881L52.3005 7.22913C52.4217 7.35036 52.5665 7.44622 52.7248 7.51055L58.6109 9.86389L60.6012 13.8426L58.9468 16.3252L53.4534 15.2256C52.9505 15.1247 52.436 15.3375 52.1515 15.7643L48.3614 21.4488L44.2293 12.1529C44.0252 11.6934 43.5693 11.3984 43.0665 11.4002H40.0396L42.4523 9.95295C42.7399 9.77978 42.9471 9.50022 43.0288 9.17489L44.1544 4.67355L47.8802 2.80881ZM27.5196 7.29036L31.9659 5.0669H41.4442L40.6977 8.05048L35.1158 11.4002H29.2118L25.5132 10.9382L27.5196 7.29036ZM19.666 12.7596L26.0859 13.5624L20.728 18.0279C20.5059 18.2128 20.3538 18.4689 20.2969 18.7522L19.3803 23.3222L15.4535 20.9701L16.3553 18.266L19.666 12.7596ZM8.73984 27.1667C8.78747 27.0671 8.82148 26.962 8.84127 26.8537L9.85497 21.8236L13.4496 22.7222L16.3107 24.4385L19.1409 26.1369L19.9883 30.4001H7.11631L8.73984 27.1667ZM5.06665 32.9335H70.9331V35.4668H5.06665V32.9335ZM11.3029 67.1333L8.97178 38.0001H67.0279L64.6975 67.1333H59.5331C59.5306 66.2755 59.4026 65.422 59.1534 64.6H61.1801C61.8419 64.6025 62.3936 64.0947 62.4468 63.4348L64.1693 41.9015C64.1977 41.5484 64.0765 41.1995 63.8359 40.9398C63.5953 40.68 63.257 40.5328 62.9026 40.5334H13.0884C12.734 40.5328 12.3957 40.68 12.1551 40.9398C11.9145 41.1995 11.7933 41.5484 11.8218 41.9015L13.5449 63.4348C13.5974 64.0947 14.1491 64.6025 14.8115 64.6H16.8377C16.5915 65.422 16.4666 66.2755 16.4666 67.1333H11.3029ZM18.9999 67.1333C18.9999 63.6358 21.8357 60.8 25.3332 60.8C28.8314 60.8 31.6665 63.6358 31.6665 67.1333C31.6665 70.6315 28.8314 73.4666 25.3332 73.4666C21.8375 73.4629 19.0043 70.6296 18.9999 67.1333Z" fill="#131E55"/>
<path d="M25.3333 63.3331C23.2348 63.3331 21.5333 65.0346 21.5333 67.1331C21.5333 69.2322 23.2348 70.9331 25.3333 70.9331C27.4319 70.9331 29.1333 69.2322 29.1333 67.1331C29.1333 65.0346 27.4319 63.3331 25.3333 63.3331ZM25.3333 68.3998C24.6338 68.3998 24.0667 67.8332 24.0667 67.1331C24.0667 66.4336 24.6338 65.8664 25.3333 65.8664C26.0328 65.8664 26.6 66.4336 26.6 67.1331C26.6 67.8332 26.0328 68.3998 25.3333 68.3998Z" fill="#131E55"/>
<path d="M50.6666 63.3331C48.568 63.3331 46.8666 65.0346 46.8666 67.1331C46.8666 69.2322 48.568 70.9331 50.6666 70.9331C52.7651 70.9331 54.4666 69.2322 54.4666 67.1331C54.4666 65.0346 52.7651 63.3331 50.6666 63.3331ZM50.6666 68.3998C49.9671 68.3998 49.3999 67.8332 49.3999 67.1331C49.3999 66.4336 49.9671 65.8664 50.6666 65.8664C51.3661 65.8664 51.9332 66.4336 51.9332 67.1331C51.9332 67.8332 51.3661 68.3998 50.6666 68.3998Z" fill="#131E55"/>
</svg>
