<svg width="76" height="76" viewBox="0 0 76 76" fill="none" xmlns="http://www.w3.org/2000/svg">
<path d="M74.8125 62.9375H1.1875C0.530548 62.9375 0 62.4064 0 61.75C0 61.093 0.530548 60.5625 1.1875 60.5625H74.8125C75.4695 60.5625 76 61.093 76 61.75C76 62.4064 75.4695 62.9375 74.8125 62.9375Z" fill="#131E55"/>
<path d="M28.5 62.9375C27.843 62.9375 27.3125 62.4064 27.3125 61.75V46.3125C27.3125 45.6555 27.843 45.125 28.5 45.125C29.157 45.125 29.6875 45.6555 29.6875 46.3125V61.75C29.6875 62.4064 29.157 62.9375 28.5 62.9375Z" fill="#131E55"/>
<path d="M32.0625 62.9375C31.4055 62.9375 30.875 62.4064 30.875 61.75V46.3125C30.875 45.6555 31.4055 45.125 32.0625 45.125C32.7195 45.125 33.25 45.6555 33.25 46.3125V61.75C33.25 62.4064 32.7195 62.9375 32.0625 62.9375Z" fill="#131E55"/>
<path d="M43.9375 62.9375C43.2805 62.9375 42.75 62.4064 42.75 61.75V46.3125C42.75 45.6555 43.2805 45.125 43.9375 45.125C44.5945 45.125 45.125 45.6555 45.125 46.3125V61.75C45.125 62.4064 44.5945 62.9375 43.9375 62.9375Z" fill="#131E55"/>
<path d="M47.5 62.9375C46.843 62.9375 46.3125 62.4064 46.3125 61.75V46.3125C46.3125 45.6555 46.843 45.125 47.5 45.125C48.157 45.125 48.6875 45.6555 48.6875 46.3125V61.75C48.6875 62.4064 48.157 62.9375 47.5 62.9375Z" fill="#131E55"/>
<path d="M27.3136 47.5C26.9304 47.5 26.5523 47.3145 26.3244 46.9712L23.9494 43.4087C23.5847 42.8625 23.732 42.1261 24.2782 41.762C24.8244 41.3984 25.5608 41.5445 25.9255 42.0907L28.3005 45.6532C28.6652 46.1994 28.5179 46.9358 27.9717 47.3005C27.7682 47.4345 27.5392 47.5 27.3136 47.5Z" fill="#131E55"/>
<path d="M48.6875 47.5H27.3125C26.6555 47.5 26.125 46.9689 26.125 46.3125C26.125 45.6555 26.6555 45.125 27.3125 45.125H48.6875C49.3445 45.125 49.875 45.6555 49.875 46.3125C49.875 46.9689 49.3445 47.5 48.6875 47.5Z" fill="#131E55"/>
<path d="M48.6863 47.5C48.4608 47.5 48.2317 47.4345 48.0282 47.3005C47.482 46.9358 47.3347 46.1994 47.6994 45.6532L50.0744 42.0907C50.438 41.5445 51.1726 41.3984 51.7217 41.762C52.268 42.1261 52.4152 42.8625 52.0505 43.4087L49.6755 46.9712C49.4476 47.3145 49.0696 47.5 48.6863 47.5Z" fill="#131E55"/>
<path d="M51.0625 43.9375H24.9375C24.2805 43.9375 23.75 43.4064 23.75 42.75C23.75 42.093 24.2805 41.5625 24.9375 41.5625H51.0625C51.7195 41.5625 52.25 42.093 52.25 42.75C52.25 43.4064 51.7195 43.9375 51.0625 43.9375Z" fill="#131E55"/>
<path d="M13.0613 59.375C12.507 59.375 12.0101 58.9853 11.8988 58.42L10.7113 52.4825C10.5831 51.8389 11 51.2144 11.6425 51.0851C12.2919 50.9494 12.9106 51.3733 13.0399 52.0157L14.2274 57.9532C14.3555 58.5969 13.9386 59.2219 13.2962 59.3512C13.2167 59.3675 13.1373 59.375 13.0613 59.375Z" fill="#131E55"/>
<path d="M21.375 59.375H13.0625C12.4055 59.375 11.875 58.8439 11.875 58.1875C11.875 57.5305 12.4055 57 13.0625 57H21.375C22.032 57 22.5625 57.5305 22.5625 58.1875C22.5625 58.8439 22.032 59.375 21.375 59.375Z" fill="#131E55"/>
<path d="M21.3762 59.375C21.299 59.375 21.2208 59.3675 21.1425 59.3512C20.5 59.2231 20.082 58.5969 20.2113 57.9532L21.3988 52.0157C21.5269 51.371 22.1526 50.9506 22.7962 51.0851C23.4386 51.2133 23.8567 51.8389 23.7274 52.4825L22.5399 58.42C22.4274 58.9853 21.9305 59.375 21.3762 59.375Z" fill="#131E55"/>
<path d="M22.5625 53.4375H11.875C11.218 53.4375 10.6875 52.9064 10.6875 52.25C10.6875 51.593 11.218 51.0625 11.875 51.0625H22.5625C23.2195 51.0625 23.75 51.593 23.75 52.25C23.75 52.9064 23.2195 53.4375 22.5625 53.4375Z" fill="#131E55"/>
<path d="M14.25 62.9375C13.593 62.9375 13.0625 62.4064 13.0625 61.75V58.1875C13.0625 57.5305 13.593 57 14.25 57C14.907 57 15.4375 57.5305 15.4375 58.1875V61.75C15.4375 62.4064 14.907 62.9375 14.25 62.9375Z" fill="#131E55"/>
<path d="M20.1875 62.9375C19.5305 62.9375 19 62.4064 19 61.75V58.1875C19 57.5305 19.5305 57 20.1875 57C20.8445 57 21.375 57.5305 21.375 58.1875V61.75C21.375 62.4064 20.8445 62.9375 20.1875 62.9375Z" fill="#131E55"/>
<path d="M53.4375 62.9375C53.314 62.9375 53.187 62.9172 53.0624 62.8755C52.4414 62.669 52.1039 61.997 52.3115 61.3731L53.499 57.8106C53.7071 57.1896 54.3745 56.8527 55.0013 57.0603C55.6223 57.2667 55.9598 57.9393 55.7522 58.5627L54.5647 62.1252C54.3983 62.6227 53.935 62.9375 53.4375 62.9375Z" fill="#131E55"/>
<path d="M59.375 62.9375C58.8775 62.9375 58.4142 62.6227 58.249 62.1252L57.0615 58.5627C56.8539 57.9405 57.1902 57.2667 57.8124 57.0603C58.438 56.8527 59.1077 57.1885 59.3147 57.8106L60.5022 61.3731C60.7098 61.9959 60.3735 62.669 59.7513 62.8755C59.6255 62.9172 59.4985 62.9375 59.375 62.9375Z" fill="#131E55"/>
<path d="M60.5625 62.9375C60.439 62.9375 60.312 62.9172 60.1874 62.8755C59.5664 62.669 59.2289 61.997 59.4365 61.3731L60.624 57.8106C60.831 57.1896 61.4995 56.8527 62.1263 57.0603C62.7473 57.2667 63.0848 57.9393 62.8772 58.5627L61.6897 62.1252C61.5233 62.6227 61.06 62.9375 60.5625 62.9375Z" fill="#131E55"/>
<path d="M65.3125 59.375H54.625C53.968 59.375 53.4375 58.8439 53.4375 58.1875C53.4375 57.5305 53.968 57 54.625 57H65.3125C65.9695 57 66.5 57.5305 66.5 58.1875C66.5 58.8439 65.9695 59.375 65.3125 59.375Z" fill="#131E55"/>
<path d="M66.5 62.9375C66.0025 62.9375 65.5392 62.6227 65.374 62.1252L64.1865 58.5627C63.9789 57.9405 64.3152 57.2667 64.9374 57.0603C65.563 56.8527 66.2315 57.1885 66.4397 57.8106L67.6272 61.3731C67.8348 61.9959 67.4985 62.669 66.8763 62.8755C66.7505 62.9172 66.6235 62.9375 66.5 62.9375Z" fill="#131E55"/>
<path d="M57 59.375C56.8765 59.375 56.7495 59.3547 56.6249 59.313C56.0039 59.1065 55.6664 58.4345 55.874 57.8106L57.0615 54.2481C57.2696 53.6271 57.9359 53.2879 58.5638 53.4978C59.1848 53.7042 59.5223 54.3768 59.3147 55.0001L58.1272 58.5626C57.9608 59.0601 57.4975 59.375 57 59.375Z" fill="#131E55"/>
<path d="M61.75 55.8125H58.1875C57.5305 55.8125 57 55.2814 57 54.625C57 53.968 57.5305 53.4375 58.1875 53.4375H61.75C62.407 53.4375 62.9375 53.968 62.9375 54.625C62.9375 55.2814 62.407 55.8125 61.75 55.8125Z" fill="#131E55"/>
<path d="M62.9375 59.375C62.44 59.375 61.9767 59.0601 61.8115 58.5626L60.624 55.0001C60.4164 54.378 60.7527 53.7042 61.3749 53.4978C62.0017 53.2879 62.669 53.6259 62.8772 54.2481L64.0647 57.8106C64.2723 58.4333 63.936 59.1065 63.3138 59.3129C63.188 59.3547 63.061 59.375 62.9375 59.375Z" fill="#131E55"/>
<path d="M3.56368 62.9375C3.45467 62.9375 3.34508 62.9218 3.23723 62.8923C2.60637 62.7119 2.24107 62.0538 2.42024 61.4247L9.54524 36.4872C9.72557 35.8552 10.3895 35.4992 11.0128 35.6702C11.6437 35.8505 12.009 36.5081 11.8298 37.1378L4.70479 62.0753C4.55519 62.5977 4.08031 62.9375 3.56368 62.9375Z" fill="#131E55"/>
<path d="M20.1875 38H10.6875C10.0305 38 9.5 37.4689 9.5 36.8125C9.5 36.1555 10.0305 35.625 10.6875 35.625H20.1875C20.8445 35.625 21.375 36.1555 21.375 36.8125C21.375 37.4689 20.8445 38 20.1875 38Z" fill="#131E55"/>
<path d="M17.8125 38C17.6994 38 17.5858 37.9832 17.4716 37.9501C16.8436 37.7611 16.487 37.0984 16.6749 36.4716L20.2374 24.5966C20.4252 23.9686 21.0839 23.6132 21.716 23.7999C22.3439 23.9883 22.7005 24.6511 22.5126 25.2779L18.9501 37.1529C18.7959 37.6683 18.3245 38 17.8125 38Z" fill="#131E55"/>
<path d="M32.0625 26.125H21.375C20.718 26.125 20.1875 25.5939 20.1875 24.9375C20.1875 24.2805 20.718 23.75 21.375 23.75H32.0625C32.7195 23.75 33.25 24.2805 33.25 24.9375C33.25 25.5939 32.7195 26.125 32.0625 26.125Z" fill="#131E55"/>
<path d="M26.125 26.125C25.8009 26.125 25.4767 25.9928 25.2425 25.7319C24.8047 25.2448 24.8436 24.4933 25.3306 24.055L37.2056 13.3675C37.6927 12.9291 38.4442 12.9674 38.8825 13.4556C39.3203 13.9421 39.2814 14.6942 38.7944 15.1319L26.9194 25.8194C26.6927 26.0241 26.4074 26.125 26.125 26.125Z" fill="#131E55"/>
<path d="M72.4363 62.9375C71.9197 62.9375 71.4448 62.5977 71.2952 62.0753L64.1702 37.1378C63.991 36.5081 64.3552 35.8505 64.9872 35.6702C65.6117 35.4992 66.2744 35.854 66.4548 36.4872L73.5797 61.4247C73.7589 62.0538 73.3948 62.7119 72.7628 62.8923C72.6549 62.9218 72.5453 62.9375 72.4363 62.9375Z" fill="#131E55"/>
<path d="M65.3125 38H54.625C53.968 38 53.4375 37.4689 53.4375 36.8125C53.4375 36.1555 53.968 35.625 54.625 35.625H65.3125C65.9695 35.625 66.5 36.1555 66.5 36.8125C66.5 37.4689 65.9695 38 65.3125 38Z" fill="#131E55"/>
<path d="M58.1875 38C57.6755 38 57.2041 37.6683 57.0499 37.1529L53.4874 25.2779C53.2995 24.6511 53.6561 23.9883 54.2841 23.7999C54.9126 23.6132 55.5748 23.9686 55.7626 24.5966L59.3251 36.4716C59.513 37.0984 59.1564 37.7611 58.5284 37.9501C58.4142 37.9832 58.3006 38 58.1875 38Z" fill="#131E55"/>
<path d="M54.625 26.125H43.9375C43.2805 26.125 42.75 25.5939 42.75 24.9375C42.75 24.2805 43.2805 23.75 43.9375 23.75H54.625C55.282 23.75 55.8125 24.2805 55.8125 24.9375C55.8125 25.5939 55.282 26.125 54.625 26.125Z" fill="#131E55"/>
<path d="M49.875 26.125C49.5926 26.125 49.3073 26.0241 49.0806 25.8194L37.2056 15.1319C36.7186 14.6941 36.6797 13.9421 37.1175 13.4556C37.557 12.9686 38.3061 12.9303 38.7944 13.3675L50.6694 24.055C51.1564 24.4933 51.1953 25.2448 50.7575 25.7319C50.5233 25.9928 50.1991 26.125 49.875 26.125Z" fill="#131E55"/>
</svg>
